<!DOCTYPE svg PUBLIC "-//W3C//DTD SVG 20010904//EN" "http://www.w3.org/TR/2001/REC-SVG-20010904/DTD/svg10.dtd">
<svg version="1.0" xmlns="http://www.w3.org/2000/svg" width="1200px" height="1200px" viewBox="0 0 12000 12000" preserveAspectRatio="xMidYMid meet">
<g id="layer101" fill="#4d4c4e" stroke="none">
 <path d="M0 6000 l0 -6000 6000 0 6000 0 0 6000 0 6000 -6000 0 -6000 0 0 -6000z"/>
 </g>
<g id="layer102" fill="#f6f6f6" stroke="none">
 <path d="M0 6000 l0 -6000 6000 0 6000 0 0 6000 0 6000 -6000 0 -6000 0 0 -6000z m6352 2900 c27 -28 30 -36 25 -73 -4 -28 -14 -49 -32 -64 l-26 -23 -789 0 -789 0 -5 -32 c-3 -18 -24 -190 -46 -383 -22 -192 -68 -581 -100 -864 -33 -283 -60 -520 -60 -527 0 -12 238 -14 1470 -14 1265 0 1470 2 1470 14 0 16 -20 187 -105 916 -30 256 -64 546 -75 645 -11 99 -23 195 -26 213 l-5 32 -105 0 c-124 0 -157 12 -174 65 -9 28 -9 43 0 66 23 55 38 59 230 59 198 0 212 -4 230 -68 5 -20 39 -291 75 -602 36 -311 86 -737 110 -947 25 -210 45 -384 45 -387 0 -3 49 -6 109 -6 119 0 152 -13 165 -65 3 -13 40 -316 81 -672 42 -357 88 -758 105 -893 42 -354 44 -386 31 -418 -18 -43 -47 -55 -148 -60 -59 -3 -93 -9 -93 -16 0 -18 80 -709 85 -733 5 -20 11 -21 120 -25 110 -3 116 -4 142 -31 l28 -27 0 -261 0 -261 -33 -29 -32 -29 -165 0 -165 0 0 -120 c0 -129 -12 -180 -48 -199 -13 -7 -91 -11 -202 -11 l-182 0 -30 30 c-27 28 -30 36 -25 73 4 28 14 49 32 64 24 21 36 23 141 23 l114 0 0 70 0 70 -1700 0 -1700 0 0 -70 0 -70 1466 0 c986 0 1472 -3 1485 -10 53 -29 61 -121 12 -160 -26 -20 -30 -20 -1560 -20 -1080 0 -1540 3 -1555 11 -36 19 -48 70 -48 199 l0 120 -166 0 -166 0 -34 34 -35 35 3 255 3 256 28 27 c26 27 32 28 142 31 109 4 115 5 119 25 6 26 86 716 86 735 0 8 -19 12 -62 12 -138 0 -188 28 -188 104 0 22 23 230 50 461 28 231 62 519 75 640 14 121 28 237 31 257 13 85 106 118 165 59 17 -17 29 -40 29 -55 0 -14 -29 -279 -65 -588 -36 -310 -68 -589 -72 -620 l-6 -58 1963 0 1963 0 -6 58 c-4 31 -40 350 -82 707 -42 358 -84 718 -93 800 l-18 150 -1764 0 -1765 0 -12 -109 c-14 -128 -26 -162 -64 -181 -56 -30 -110 -10 -134 49 -10 26 -9 57 6 186 24 198 26 206 56 230 22 17 41 20 133 20 l107 0 12 88 c6 48 44 377 86 732 104 896 124 1070 131 1109 3 18 16 44 29 57 l24 24 856 0 857 0 30 -30z m539 1 c43 -43 37 -102 -15 -143 -18 -15 -45 -18 -199 -18 l-179 0 -29 29 c-38 39 -39 87 -3 130 l26 31 185 0 185 0 29 -29z"/>
 <path d="M4280 4806 c0 -3 -20 -177 -45 -387 -25 -211 -45 -384 -45 -386 0 -2 63 -3 139 -3 134 0 141 -1 169 -25 57 -48 44 -132 -25 -162 -33 -14 -74 -15 -305 -10 l-268 6 0 -119 0 -120 2100 0 2100 0 0 118 0 117 -1550 -3 c-1403 -3 -1553 -1 -1584 13 -50 24 -71 88 -46 136 28 51 -40 49 1480 49 775 0 1410 1 1410 3 0 2 -20 175 -45 386 -25 210 -45 384 -45 387 0 2 -774 4 -1720 4 -946 0 -1720 -2 -1720 -4z m546 -809 c26 -30 32 -84 13 -119 -24 -44 -140 -63 -200 -32 -36 18 -62 73 -53 109 3 14 20 37 37 51 28 24 37 26 105 22 66 -3 77 -6 98 -31z"/>
 </g>

</svg>